<?xml version="1.0" encoding="UTF-8"?>
<svg id="Capa_1" xmlns="http://www.w3.org/2000/svg" version="1.1" viewBox="0 0 24 24">
  <!-- Generator: Adobe Illustrator 29.5.1, SVG Export Plug-In . SVG Version: 2.1.0 Build 141)  -->
  <defs>
    <style>
      .st0 {
        fill: #fff;
      }
    </style>
  </defs>
  <path class="st0" d="M0,0v20.2c0,2.1,1.7,3.8,3.8,3.8h16.3c2.1,0,3.8-1.7,3.8-3.8h0V3.8C24,1.7,22.3,0,20.2,0h0s-20.2,0-20.2,0ZM14.3,13.1c1.6,0,2.3,1.1,2.3,2.6h-1.6c0-.3,0-.6-.1-.8,0-.2-.3-.3-.6-.3-.5,0-.7.3-.7.8,0,.6.3.9.8,1.1.7.3,1.6.7,1.9,1.3.3.4.4,1,.4,1.7,0,1.6-.9,2.6-2.5,2.6s-2.4-1-2.4-2.7h1.7c0,.8.3,1.2.8,1.2s.5,0,.6-.2c.2-.3.2-1.2,0-1.5-.3-.4-.9-.6-1.3-.8-.6-.3-1-.6-1.2-.9-.2-.4-.4-.9-.4-1.5,0-1.4.9-2.5,2.4-2.4M19.7,13.1c1.6,0,2.3,1.1,2.3,2.6h-1.6c0-.3,0-.6-.2-.8,0-.2-.3-.3-.5-.3-.5,0-.7.3-.7.8s.3.9.8,1.1c.7.3,1.6.7,1.9,1.3.3.4.4,1,.4,1.7,0,1.6-.9,2.6-2.5,2.6s-2.4-1.1-2.4-2.7h1.7c0,.7.3,1.2.8,1.2s.5,0,.6-.2c.2-.3.3-1.2,0-1.5-.3-.4-.9-.6-1.3-.8-.6-.3-1-.6-1.2-.9s-.4-.9-.4-1.5c0-1.4.9-2.5,2.4-2.4M8.6,13.1c.7,0,1.4.2,1.8.6.4.4.7,1.1.6,2h-1.8c0-.5,0-.8-.4-1-.3-.1-.8,0-.9.2-.1.3-.2.6-.2.9v3.5c0,.7.3,1.1.8,1.1.2,0,.4,0,.6-.3.2-.2.2-.6.2-.8h1.8c0,1.6-1,2.7-2.6,2.7-1.5,0-2.5-.9-2.5-2.5v-4c0-.8.2-1.4.7-1.8.4-.4,1.1-.6,1.9-.6"/>
</svg>