<?xml version="1.0" encoding="UTF-8"?>
<svg id="Capa_1" xmlns="http://www.w3.org/2000/svg" version="1.1" viewBox="0 0 24 24">
  <!-- Generator: Adobe Illustrator 29.5.1, SVG Export Plug-In . SVG Version: 2.1.0 Build 141)  -->
  <defs>
    <style>
      .st0 {
        fill: #fff;
      }
    </style>
  </defs>
  <path class="st0" d="M23.5,10.9L13.1.5c-.6-.6-1.6-.6-2.2,0l-2.2,2.2,2.8,2.8c.6-.2,1.4,0,1.9.4.5.5.7,1.3.4,1.9l2.7,2.7c.6-.2,1.4,0,1.9.4.7.7.7,1.9,0,2.6-.7.7-1.9.7-2.6,0-.5-.5-.7-1.3-.4-2l-2.5-2.5v6.5c.2,0,.3.2.5.3.7.7.7,1.9,0,2.6-.7.7-1.9.7-2.6,0-.7-.7-.7-1.9,0-2.6.2-.2.4-.3.6-.4v-6.6c-.2,0-.4-.2-.6-.4-.5-.5-.7-1.3-.4-2l-2.7-2.7L.4,10.9c-.6.6-.6,1.6,0,2.2l10.5,10.5c.6.6,1.6.6,2.2,0l10.4-10.4c.6-.6.6-1.6,0-2.2"/>
</svg>