<?xml version="1.0" encoding="UTF-8"?>
<svg id="Capa_1" xmlns="http://www.w3.org/2000/svg" version="1.1" viewBox="0 0 24 24">
  <!-- Generator: Adobe Illustrator 29.5.1, SVG Export Plug-In . SVG Version: 2.1.0 Build 141)  -->
  <defs>
    <style>
      .st0 {
        fill: #fff;
      }
    </style>
  </defs>
  <path class="st0" d="M1.8,0C.8,0,0,.8,0,1.8c0,0,0,0,0,0v18.5c0,1,.8,1.8,1.8,1.8h20.3c1,0,1.8-.8,1.8-1.8,0,0,0,0,0,0V1.8C24,.8,23.2,0,22.2,0c0,0,0,0,0,0H1.8ZM1.8.9h20.3c.5,0,.9.4.9.9v18.5c0,.5-.4.9-.9.9H1.8c-.5,0-.9-.4-.9-.9,0,0,0,0,0,0V1.8c0-.5.4-.9.9-.9ZM1.8,1.8v18.5h20.3V1.8H1.8ZM3.7,4l3.2,1.8v.8l-3.2,1.9v-1.1l2.2-1.2h0s-2.2-1.1-2.2-1.1v-1.1h0ZM7.8,9.2h3.7v.9h-3.7v-.9ZM0,21.7v.4c0,1,.8,1.8,1.8,1.8h20.3c1,0,1.8-.8,1.8-1.8,0,0,0,0,0,0v-.4c-.4.6-1.1.9-1.8.9H1.8c-.7,0-1.4-.3-1.8-.9Z"/>
</svg>