<?xml version="1.0" encoding="UTF-8"?>
<svg id="Capa_1" xmlns="http://www.w3.org/2000/svg" version="1.1" viewBox="0 0 24 24">
  <!-- Generator: Adobe Illustrator 29.5.1, SVG Export Plug-In . SVG Version: 2.1.0 Build 141)  -->
  <defs>
    <style>
      .st0 {
        fill: #fff;
      }
    </style>
  </defs>
  <path class="st0" d="M0,0h24v24H0V0ZM22,18.3c-.2-1.1-.9-2-3-2.9-.7-.3-1.6-.6-1.8-1.1,0-.3-.1-.5,0-.7.1-.6.9-.8,1.5-.7.4.1.8.4,1,.9q1-.7,1.8-1.1c-.3-.4-.4-.6-.6-.8-.6-.7-1.5-1.1-2.8-1h-.7c-.7.3-1.3.6-1.7,1.1-1.1,1.3-.8,3.5.6,4.5,1.4,1,3.4,1.2,3.6,2.2.2,1.2-.9,1.5-2,1.4-.8-.2-1.3-.6-1.8-1.3l-1.8,1.1c.2.5.4.7.8,1.1,1.7,1.8,6.1,1.7,6.9-1,0,0,.2-.7,0-1.6,0,0,0,0,0,0ZM13.1,11h-2.2c0,1.9,0,3.9,0,5.8s0,2.4-.1,2.7c-.3.7-1.2.6-1.6.5-.4-.2-.6-.5-.8-.9,0-.1-.1-.2-.1-.2l-1.8,1.1c.3.6.8,1.2,1.3,1.5.9.5,2,.7,3.2.4.8-.2,1.5-.7,1.8-1.4.5-.9.4-2.1.4-3.3,0-2.1,0-4.1,0-6.2,0,0,0,0,0,0Z"/>
</svg>