<?xml version="1.0" encoding="UTF-8"?>
<svg id="Capa_1" xmlns="http://www.w3.org/2000/svg" version="1.1" viewBox="0 0 24 24">
  <!-- Generator: Adobe Illustrator 29.5.1, SVG Export Plug-In . SVG Version: 2.1.0 Build 141)  -->
  <defs>
    <style>
      .st0 {
        fill: #fff;
      }
    </style>
  </defs>
  <path class="st0" d="M7.4,2.3c-2.2,1-3.6,2.6-4.4,3.7-.9,1.3-1.2,2.3-1.2,2.3,0,0,0,0,0,0-.2.7-.5,1.8-.5,1.8-.3,1.3-.1,2.6-.1,2.6v.2C1,4.3,7.9-3.1,16.7-3.4c8.8-.3,16.2,6.7,16.5,15.5,0-.1.4-2,1.7-3.5.1-.2,1.7-2.2,4.5-2.2s1.2,0,1.9.3h0s.9.3,1.2.5c.3.1.8.4.8.4h0c2.7,1.3,5.1,1.7,5.1,1.8.7.1,1.3.2,1.8.2,1.1,0,1.9-.2,2.3-.7.2-.3.3-.6.3-.8,0-1-.8-2-1.5-2.8-.5-.5-1-.9-1.5-1.3-2-1.5-4.2-2.3-6.5-2.3-2.3,0-3.9.8-4,.8H7.4ZM14.8,5c.3,0,.5.2.5.5,0,.3-.2.5-.5.5,0,0,0,0,0,0-.3,0-.5-.2-.5-.5,0,0,0,0,0,0,0-.3.2-.5.5-.5ZM8.2,3.1c0,0,.1,0,.1,0l3.2,1v.3c-.1,0-1.7-.5-1.7-.5-.5-.2-1.1-.4-1.7-.5,0,0,0,0,0,0s0,0,0,0c-.3,0-1.1.4-1.3.8,0,.1,0,.3,0,.4,0,0,.2.5.6,1.1h2.1c0-.1,1.4-.2,1.4-.2v.3c-.1,0-3.7.2-3.7.2-.5-.6-.7-1.3-.7-1.3-.3-1,1.6-1.5,1.6-1.5,0,0,0,0,.1,0h0ZM19.4,18.8c2.2-.9,3.1-2.6,3.1-2.6,2-2.8,1.3-5.7,1.3-5.7-1.3,2.8-2.5,3.6-2.5,3.6,3.2-4.9,0-7.8,0-7.8,1.3,2.8-.4,6.1-.4,6.1-1.4,3-3.5,4.1-3.5,4.1,2.3.4,4-1.1,4-1.1-3.3,3.5-6.8,3.4-6.8,3.4,1.5,1.7,3.7,1.5,3.7,1.5-2.9.7-5.7-.3-7.9-2.2-.4-.4-.8-.7-1.2-1.1-.1-.1-.3-.3-.4-.5,0,1.8,1.8,3.4,1.8,3.4-2.3-.9-3.3-3-3.3-3,0,0-1.5-2.6-.4-5.6,1.1-3,4.4-3.6,4.5-3.6-.3-.1-.6-.3-.8-.4-.3-.1-1.1-.5-1.1-.5-.6-.2-1.2-.3-1.8-.3-2.8,0-4.3,2.1-4.3,2.1-1.3,1.5-1.6,3.4-1.6,3.4-.4,1.8,0,3.7,0,3.7,0,0,0,.2,0,.2.3.7.7,1.4,1.1,2.1,2.5,3.7,6.5,4.9,6.5,4.9,5.9,2,10-.9,10-.9,3.7-2.6,4.5-5.5,4.5-5.5-3,2.3-4.3,2.1-4.3,2.1h0ZM1.3,14.9c-.2-.6-.3-1.2-.4-1.8,0,0,0-.2,0-.3,0,0-.1-1.3.2-2.7,0,0,0,0,0,0,0-.2,0-.4.1-.6,0-.4.2-.8.3-1.2,0,0,1.3-4.3,5.7-6.2,0,0,1.5-.8,3.8-.9-.2-.2-.3-.3-.5-.4-1.1-.7-2.7-1-3.7,0-.3.3-.5.6-.8.9-.3.3-.7.6-1.1.8-.4.1-.8.1-1.1.2-.4,0-.8.2-1.1.5-.3.3-.5.7-.5,1.1,0,.3,0,.7,0,1,0,1-.4,1.3-1.1,1.8-.3.2-.6.5-.7.9-.6,1,.3,2,.4,3.1,0,.2,0,.4,0,.6,0,.2-.2.4-.3.5-.2.2-.3.5-.2.8,0,.3.2.6.3.8.3.5.6.9,1,1.2,0,0,0,0,0,0,0,0,0-.2,0-.2Z"/>
</svg>