<?xml version="1.0" encoding="UTF-8"?>
<svg id="Capa_1" xmlns="http://www.w3.org/2000/svg" version="1.1" viewBox="0 0 128 128">
  <!-- Generator: Adobe Illustrator 29.5.1, SVG Export Plug-In . SVG Version: 2.1.0 Build 141)  -->
  <defs>
    <style>
      .st0 {
        fill: #fff;
      }
    </style>
  </defs>
  <path class="st0" d="M46.5.9c-3.5-.1-7,.9-9.6,3.6-1.6,1.6-2.9,3.4-4.3,5-1.7,1.8-3.7,3.3-6,4.2-2,.8-4,.6-6.1,1-2.1.4-4.3,1.1-6,2.5-1.9,1.5-2.6,3.5-2.8,5.9-.2,1.8-.2,3.7-.3,5.5-.3,5.4-2,6.9-5.8,9.8-1.6,1.2-3,2.8-4,4.5-3,5.3,1.8,10.9,2.1,16.3,0,1.1,0,2.2-.5,3.3-.4,1.2-1.2,1.9-1.9,2.9-.9,1.3-1.5,2.8-1.3,4.3.2,1.6,1.1,3,1.8,4.4,1.5,2.4,3.3,4.6,5.2,6.7,0,0,.1,0,.2.1,1.2,3.7,1.8,5.1,1.8,5.1,0,0,0-.3-.1-.5,1.7,4,3.7,7.9,6.2,11.6,13.1,19.6,34.4,26.3,34.4,26.3,31.5,10.7,53.1-5,53.1-5,19.8-13.6,23.8-29.4,23.8-29.4-16,12.5-22.9,11.4-22.9,11.4,11.6-5,16.6-13.8,16.6-13.8,10.9-14.8,7.2-30.4,7.2-30.4-6.9,15-13.2,19.2-13.2,19.2,17-25.9.1-41.5.1-41.5,6.9,14.7-2.3,32.7-2.3,32.7-7.7,16.3-18.7,22.1-18.7,22.1,12.2,2.3,21.2-6,21.2-6-17.5,18.9-36.5,18-36.5,18,8,8.9,19.9,8.2,19.9,8.2-15.6,3.7-30.3-1.5-42.4-11.6-2.3-1.9-4.4-3.9-6.5-6.1,0,0-1.8-1.9-2.2-2.4h0c-.2,9.3,9.5,18,9.5,18-12.2-5-17.8-16-17.8-16,0,0-8.2-14-2.3-30,6-16,24-19.4,24-19.4.6.3,1.1.5,1.7.8.6.3,1.2.6,1.8.8,13.3,5.9,24,7.9,24,7.9,26.6,4.4,25.1-8.6,25.1-8.6.1-5.7-4.2-11.6-8.5-16-.9-.9-1.8-1.8-2.7-2.6,0,0-.2-.2-.2-.2-1-.9-1.9-1.6-2.6-2.3,0,0,0,0,0,0-1.6-1.3-2.7-2.1-2.7-2.1-1.6-1.2-3.2-2.2-4.7-3.2-.3-.2-.6-.4-.9-.5-.2,0-.3-.2-.5-.3-5.5-3.3-10.8-5.4-15.8-6.7-.2,0-.4,0-.6-.1-.6-.1-1.2-.3-1.7-.4-4.6-1-8.9-1.4-12.9-1.3-.2-.2-1.6-1.6-2.6-2.2-2.9-1.9-6.5-3.2-10-3.3h0ZM79,26.7c1.5,0,2.7,1.2,2.7,2.7s0,.3,0,.5c-.3,1.2-1.3,2.2-2.7,2.2s-2.7-1.2-2.7-2.7,0-.3,0-.5c.3-1.2,1.3-2.2,2.7-2.2h0Z"/>
</svg>