<?xml version="1.0" encoding="UTF-8"?>
<svg id="Capa_1" xmlns="http://www.w3.org/2000/svg" version="1.1" viewBox="0 0 24 24">
  <!-- Generator: Adobe Illustrator 29.5.1, SVG Export Plug-In . SVG Version: 2.1.0 Build 141)  -->
  <defs>
    <style>
      .st0 {
        fill: #fff;
      }
    </style>
  </defs>
  <path class="st0" d="M12,0c6.6,0,12,5.4,12,12s-5.4,12-12,12S0,18.6,0,12,5.4,0,12,0ZM9.6,16c.2.6.2,1.2,0,1.8v.2c0,0-.1.1-.1.2-.1.3-.3.6-.6.8-.7.8-1.7,1-2.1.8-.4-.3-.2-1.3.6-2.2.9-.9,2.1-1.5,2.1-1.5h0s.1,0,.1,0ZM19.5,5.1c-.5-2.1-4.1-2.8-7.4-1.6-2,.7-4.1,1.8-5.7,3.3-1.8,1.7-2.1,3.2-2,3.8.4,2.2,3.5,3.7,4.7,4.7h0c-.4.2-3.1,1.5-3.7,2.9-.7,1.5.1,2.5.6,2.7,1.6.4,3.2-.4,4.1-1.6.8-1.3.8-2.9.4-3.7.5-.1,1.1-.2,1.8-.1,2.1.2,2.5,1.6,2.4,2.1,0,.5-.5.9-.7.9-.1,0-.2.1-.2.2,0,0,0,0,.2,0,.2,0,1.1-.5,1.1-1.5,0-1.3-1.2-2.7-3.4-2.7-.9,0-1.5,0-1.9.3,0,0,0,0-.1-.1-1.4-1.5-3.9-2.5-3.8-4.4,0-.7.3-2.6,4.8-4.8,3.7-1.8,6.7-1.3,7.2-.2.7,1.6-1.6,4.6-5.4,5-1.5.2-2.2-.4-2.4-.6-.2-.2-.2-.2-.3-.2-.1,0,0,.3,0,.4.1.3.6.8,1.4,1.1.7.2,2.4.4,4.5-.4,2.3-.9,4.1-3.4,3.6-5.5,0,0,0,0,0,0Z"/>
</svg>