<?xml version="1.0" encoding="UTF-8"?>
<svg id="Capa_1" xmlns="http://www.w3.org/2000/svg" version="1.1" viewBox="0 0 24 24">
  <!-- Generator: Adobe Illustrator 29.5.1, SVG Export Plug-In . SVG Version: 2.1.0 Build 141)  -->
  <defs>
    <style>
      .st0 {
        fill: #fff;
      }
    </style>
  </defs>
  <path class="st0" d="M1.1,0C.5,0,0,.5,0,1.1v21.8c0,.6.5,1.1,1.1,1.1h21.8c.6,0,1.1-.5,1.1-1.1V1.1c0-.6-.5-1.1-1.1-1.1H1.1ZM18.5,9.8c.6,0,1.2,0,1.6.1.4,0,.9.2,1.3.3v2.5c-.2-.1-.4-.3-.6-.4-.2-.1-.5-.2-.7-.3-.5-.1-.9-.2-1.4-.2-.3,0-.6,0-.8,0-.2,0-.4.1-.6.2-.2.1-.3.2-.4.4,0,.1-.1.3-.1.5,0,.2,0,.4.2.5.1.2.3.3.4.4s.4.3.7.4c.3.1.6.3.9.4.5.2.9.4,1.3.6.4.2.7.5,1,.8.3.3.5.6.6,1,.1.4.2.8.2,1.3s-.1,1.2-.4,1.7c-.2.4-.6.8-1,1.1-.5.3-1,.5-1.5.6-.6.1-1.2.2-1.8.2-.6,0-1.2,0-1.8-.2-.5,0-1-.3-1.5-.5v-2.6c.9.8,2.1,1.2,3.2,1.2.3,0,.6,0,.9,0,.2,0,.5-.1.6-.2.2-.1.3-.2.4-.4.2-.3.2-.8,0-1.1-.1-.2-.3-.4-.5-.5-.3-.2-.5-.3-.8-.4-.3-.2-.7-.3-1-.4-.9-.4-1.6-.9-2.1-1.4-.4-.6-.7-1.2-.7-2s.1-1.1.4-1.6.6-.8,1-1.1c.4-.3.9-.5,1.5-.6.6-.1,1.2-.2,1.8-.2ZM3.4,9.9h9.6v2.2h-3.4v9.6h-2.7v-9.6h-3.4v-2.2Z"/>
</svg>