<?xml version="1.0" encoding="UTF-8"?>
<svg id="linkedin" xmlns="http://www.w3.org/2000/svg" version="1.1" viewBox="0 0 144.1 144">
  <!-- Generator: Adobe Illustrator 29.5.1, SVG Export Plug-In . SVG Version: 2.1.0 Build 141)  -->
  <defs>
    <style>
      .st0 {
        fill: #4731d4;
      }
    </style>
  </defs>
  <path class="st0" d="M72,14.2c-31.9,0-57.8,25.9-57.8,57.8s25.9,57.8,57.8,57.8,57.8-25.9,57.8-57.8c0-31.9-25.9-57.8-57.8-57.8ZM48,40.2c3.9,0,7.1,2.9,7.1,6.5s-3.2,6.5-7.1,6.5-7.1-2.9-7.1-6.5,3.2-6.5,7.1-6.5ZM55.2,95.8h-14.1v-36.7h14.1v36.7ZM103.1,95.8h-14.1v-20.2c0-2.3-.4-3.9-1.3-4.9-.9-1-2.1-1.4-3.6-1.4s-3.1.6-4.2,1.9c-1.1,1.3-1.6,3.6-1.6,7v17.6h-14.1v-36.7h13.1v6c2-2.4,3.9-4.2,5.9-5.2,2-1,4.4-1.6,7.3-1.6s6.9,1.2,9.2,3.5c2.2,2.3,3.3,5.9,3.3,10.7v23.3h0Z"/>
</svg>